<svg preserveAspectRatio="xMidYMid meet" data-bbox="41.5 41.5 117 117" viewBox="41.5 41.5 117 117" height="200" width="200" xmlns="http://www.w3.org/2000/svg" data-type="color" role="presentation" aria-hidden="true"><defs><style>#comp-jf9n81em svg [data-color="1"] {fill: #0000A1;}</style></defs>
    <g>
        <path d="M100 41.5c-32.257 0-58.5 26.243-58.5 58.5s26.243 58.5 58.5 58.5 58.5-26.243 58.5-58.5-26.243-58.5-58.5-58.5zm0 114.234c-30.732 0-55.734-25.002-55.734-55.734S69.268 44.267 100 44.267 155.734 69.269 155.734 100 130.732 155.734 100 155.734z" fill="#0000A1" data-color="1"></path>
        <path d="M100 50.531c-27.278 0-49.469 22.192-49.469 49.47S72.722 149.469 100 149.469s49.469-22.192 49.469-49.469S127.278 50.531 100 50.531zm0 96.172c-25.752 0-46.703-20.951-46.703-46.703S74.248 53.298 100 53.298s46.703 20.95 46.703 46.702-20.951 46.703-46.703 46.703z" fill="#0000A1" data-color="1"></path>
        <path d="M135.077 98.617h-19.012c5.465-3.321 9.036-9.31 9.036-16.155 0-10.433-8.488-18.922-18.921-18.922H100c-.764 0-1.383.619-1.383 1.383v19.012c-3.321-5.465-9.31-9.037-16.155-9.037-10.433 0-18.921 8.489-18.921 18.922V100c0 .764.619 1.383 1.383 1.383h19.013c-5.466 3.321-9.038 9.31-9.038 16.155 0 10.433 8.488 18.921 18.921 18.921H100c.764 0 1.383-.619 1.383-1.383v-19.012c3.321 5.465 9.31 9.037 16.155 9.037 10.433 0 18.921-8.488 18.921-18.921V100a1.381 1.381 0 0 0-1.382-1.383zm-35.012 7.762c-.017 0-.032.005-.049.006l-.017-.002c-3.482 0-6.344-2.834-6.379-6.317 0-.017-.005-.032-.006-.049l.002-.017c0-3.482 2.834-6.343 6.317-6.378.017 0 .033-.005.049-.006l.017.002c3.482 0 6.344 2.833 6.379 6.316 0 .017.005.032.006.049l-.002.017c.001 3.482-2.833 6.343-6.317 6.379zm1.318-40.072h4.797c8.908 0 16.155 7.247 16.155 16.155 0 7.955-5.644 14.567-13.337 15.902-.696-3.813-3.775-6.818-7.616-7.408V66.307zM66.306 93.82c0-8.908 7.248-16.155 16.155-16.155 7.956 0 14.567 5.644 15.903 13.337-3.813.695-6.818 3.775-7.408 7.615h-24.65V93.82zm32.311 39.874H93.82c-8.908 0-16.155-7.248-16.155-16.155 0-7.955 5.644-14.567 13.337-15.902.696 3.813 3.775 6.818 7.616 7.408v24.649zm35.077-27.514c0 8.908-7.248 16.155-16.155 16.155-7.956 0-14.567-5.644-15.903-13.338 3.813-.696 6.818-3.774 7.408-7.615h24.65v4.798z" fill="#0000A1" data-color="1"></path>
    </g>
</svg>