<svg preserveAspectRatio="xMidYMid meet" data-bbox="10.5 37.998 179 124.002" viewBox="10.5 37.998 179 124.002" height="200" width="200" xmlns="http://www.w3.org/2000/svg" data-type="color" role="presentation" aria-hidden="true"><defs><style>#comp-jf9n81ei svg [data-color="1"] {fill: #0000A1;}</style></defs>
    <g>
        <path d="M189.5 104.941c0-10.257-8.356-18.601-18.628-18.601H29.128c-10.272 0-18.628 8.345-18.628 18.601V143.4c0 .211.025.415.032.625-.02.094-.032.191-.032.291 0 .142.027.276.067.404.683 9.64 8.736 17.28 18.561 17.28h141.744c9.825 0 17.878-7.639 18.561-17.279.04-.129.067-.263.067-.405 0-.1-.012-.197-.032-.291.007-.209.032-.414.032-.625v-38.459zM29.128 89.117h141.744c8.739 0 15.848 7.099 15.848 15.824v37.987H13.281v-37.987c0-8.725 7.109-15.824 15.847-15.824zm141.744 70.107H29.128c-7.953 0-14.536-5.886-15.659-13.52h173.064c-1.124 7.634-7.708 13.52-15.661 13.52z" fill="#0000A1" data-color="1"></path>
        <path d="M160.396 152.075H35.801c-.768 0-1.391.621-1.391 1.388s.623 1.388 1.391 1.388h124.595a1.389 1.389 0 1 0 0-2.776z" fill="#0000A1" data-color="1"></path>
        <path d="M85.561 136.402h28.879c.768 0 1.39-.621 1.39-1.388v-10.843c0-.767-.622-1.388-1.39-1.388H85.561a1.39 1.39 0 0 0-1.391 1.388v10.843a1.39 1.39 0 0 0 1.391 1.388zm1.39-10.843h26.098v8.067H86.951v-8.067z" fill="#0000A1" data-color="1"></path>
        <path d="M22.448 136.402H35.8a1.39 1.39 0 0 0 1.391-1.388 1.39 1.39 0 0 0-1.391-1.388H22.448a1.39 1.39 0 0 0-1.391 1.388 1.39 1.39 0 0 0 1.391 1.388z" fill="#0000A1" data-color="1"></path>
        <path d="M40.769 136.402h3.338a1.39 1.39 0 0 0 1.391-1.388 1.39 1.39 0 0 0-1.391-1.388h-3.338a1.39 1.39 0 0 0-1.391 1.388 1.39 1.39 0 0 0 1.391 1.388z" fill="#0000A1" data-color="1"></path>
        <path d="M154.779 129.147c5.298 0 9.608-4.304 9.608-9.594 0-5.29-4.31-9.593-9.608-9.593-5.298 0-9.608 4.303-9.608 9.593s4.31 9.594 9.608 9.594zm0-16.41c3.765 0 6.828 3.058 6.828 6.817 0 3.759-3.063 6.818-6.828 6.818s-6.828-3.058-6.828-6.818c0-3.759 3.063-6.817 6.828-6.817z" fill="#0000A1" data-color="1"></path>
        <path d="M166.576 119.553c0 .767.622 1.388 1.39 1.388h2.332a1.389 1.389 0 1 0 0-2.776h-2.332c-.768 0-1.39.621-1.39 1.388z" fill="#0000A1" data-color="1"></path>
        <path d="M138.924 120.941h2.333a1.389 1.389 0 1 0 0-2.776h-2.333a1.389 1.389 0 1 0 0 2.776z" fill="#0000A1" data-color="1"></path>
        <path d="M154.612 107.606c.768 0 1.39-.621 1.39-1.388v-2.328c0-.767-.622-1.388-1.39-1.388s-1.39.621-1.39 1.388v2.328a1.387 1.387 0 0 0 1.39 1.388z" fill="#0000A1" data-color="1"></path>
        <path d="M154.612 131.502c-.768 0-1.39.621-1.39 1.388v2.328c0 .767.622 1.388 1.39 1.388s1.39-.621 1.39-1.388v-2.328c0-.768-.622-1.388-1.39-1.388z" fill="#0000A1" data-color="1"></path>
        <path d="M164.055 111.513c.356 0 .712-.136.983-.407l1.648-1.647a1.39 1.39 0 0 0-1.967-1.962l-1.648 1.647a1.385 1.385 0 0 0 .001 1.963c.271.271.627.406.983.406z" fill="#0000A1" data-color="1"></path>
        <path d="M144.185 128.001l-1.649 1.647a1.388 1.388 0 0 0 .983 2.37c.356 0 .712-.136.983-.406l1.649-1.647a1.388 1.388 0 0 0 0-1.964 1.394 1.394 0 0 0-1.966 0z" fill="#0000A1" data-color="1"></path>
        <path d="M144.185 111.107a1.393 1.393 0 0 0 1.966 0 1.388 1.388 0 0 0 0-1.964l-1.649-1.647a1.395 1.395 0 0 0-1.967 0 1.388 1.388 0 0 0 0 1.964l1.65 1.647z" fill="#0000A1" data-color="1"></path>
        <path d="M165.039 128.002a1.39 1.39 0 0 0-1.967 1.962l1.648 1.647a1.39 1.39 0 0 0 1.966-1.962l-1.647-1.647z" fill="#0000A1" data-color="1"></path>
        <path d="M65.182 70.851a1.488 1.488 0 0 0 2.978 0c0-2.12.73-3.098 1.653-4.337 1.051-1.41 2.243-3.008 2.243-6.113 0-3.107-1.191-4.706-2.242-6.116-.924-1.24-1.654-2.219-1.654-4.341 0-2.122.73-3.101 1.654-4.341 1.051-1.411 2.242-3.009 2.242-6.116a1.488 1.488 0 0 0-2.978 0c0 2.122-.73 3.101-1.654 4.341-1.051 1.411-2.242 3.01-2.242 6.116s1.191 4.705 2.242 6.116c.924 1.24 1.654 2.219 1.654 4.341 0 2.12-.73 3.098-1.653 4.337-1.052 1.41-2.243 3.008-2.243 6.113z" fill="#0000A1" data-color="1"></path>
        <path d="M86.573 70.851a1.488 1.488 0 0 0 2.978 0c0-2.12.73-3.098 1.653-4.337 1.051-1.41 2.243-3.008 2.243-6.113 0-3.107-1.191-4.706-2.242-6.116-.924-1.24-1.654-2.219-1.654-4.341 0-2.122.73-3.101 1.654-4.341 1.051-1.411 2.242-3.009 2.242-6.116a1.488 1.488 0 0 0-2.978 0c0 2.122-.73 3.101-1.654 4.341-1.051 1.411-2.242 3.01-2.242 6.116s1.191 4.705 2.242 6.116c.924 1.24 1.654 2.219 1.654 4.341 0 2.12-.73 3.098-1.653 4.337-1.051 1.41-2.243 3.008-2.243 6.113z" fill="#0000A1" data-color="1"></path>
        <path d="M107.965 70.851a1.488 1.488 0 0 0 2.978 0c0-2.12.729-3.098 1.653-4.337 1.051-1.41 2.243-3.008 2.243-6.113 0-3.107-1.192-4.706-2.243-6.116-.924-1.24-1.653-2.219-1.653-4.341 0-2.122.729-3.101 1.654-4.341 1.051-1.411 2.242-3.009 2.242-6.116a1.488 1.488 0 0 0-2.978 0c0 2.122-.729 3.101-1.653 4.341-1.051 1.411-2.243 3.01-2.243 6.116s1.191 4.705 2.242 6.116c.925 1.24 1.654 2.219 1.654 4.341 0 2.12-.729 3.098-1.653 4.337-1.052 1.41-2.243 3.008-2.243 6.113z" fill="#0000A1" data-color="1"></path>
        <path d="M129.356 70.851a1.488 1.488 0 0 0 2.978 0c0-2.12.729-3.098 1.653-4.337 1.051-1.41 2.243-3.008 2.243-6.113 0-3.107-1.192-4.706-2.243-6.116-.924-1.24-1.653-2.219-1.653-4.341 0-2.122.729-3.101 1.654-4.341 1.051-1.411 2.242-3.009 2.242-6.116a1.488 1.488 0 0 0-2.978 0c0 2.122-.729 3.101-1.653 4.341-1.051 1.411-2.243 3.01-2.243 6.116s1.191 4.705 2.242 6.116c.925 1.24 1.654 2.219 1.654 4.341 0 2.12-.729 3.098-1.653 4.337-1.051 1.41-2.243 3.008-2.243 6.113z" fill="#0000A1" data-color="1"></path>
    </g>
</svg>
